<svg xmlns="http://www.w3.org/2000/svg" version="1.1" viewBox="0 0 1200 800" width="1200" height="800">
<defs/><!--ITEM: Icon component 1--><g transform="translate(692.0 209.0) rotate(0.0 214.0 214.0)  scale(14.266666666666667 14.266666666666667)"><svg width="30.0" height="30.0" viewBox="0.0 0.0 30.0 30.0"><path fill="#99c99e" d="M0.5 4.5H29.5V25.5H0.5z"/><path fill="#5e9c76" d="M29,5v20H1V5H29 M30,4H0v22h30V4L30,4z"/><g><path fill="#ffeea3" d="M10 5H20V25H10z"/></g></svg></g><!--ITEM: Icon component 2--><g transform="translate(671.0 186.0) rotate(0.0 235.5 235.5)  scale(7.359375 7.359375)"><svg width="64.0" height="64.0" viewBox="0.0 0.0 64.0 64.0"><path d="M 32 3 C 16.009 3 3 16.009 3 32 C 3 47.991 16.009 61 32 61 C 47.991 61 61 47.991 61 32 C 61 16.009 47.991 3 32 3 z M 32 5 C 46.888 5 59 17.112 59 32 C 59 46.888 46.888 59 32 59 C 17.112 59 5 46.888 5 32 C 5 17.112 17.112 5 32 5 z M 36.369141 8.3964844 C 35.826141 8.2964844 35.305078 8.6572188 35.205078 9.1992188 C 35.105078 9.7422188 35.464813 10.263281 36.007812 10.363281 C 42.878812 11.624281 48.789359 16.128156 51.818359 22.410156 C 51.990359 22.767156 52.34675 22.974609 52.71875 22.974609 C 52.86475 22.974609 53.012344 22.943953 53.152344 22.876953 C 53.649344 22.636953 53.859141 22.039016 53.619141 21.541016 C 50.313141 14.687016 43.864141 9.7724844 36.369141 8.3964844 z M 54.066406 24.150391 C 53.937203 24.137594 53.803375 24.150156 53.671875 24.191406 C 53.144875 24.354406 52.847719 24.914406 53.011719 25.441406 C 53.355719 26.551406 53.612344 27.700516 53.777344 28.853516 C 53.848344 29.352516 54.275625 29.712891 54.765625 29.712891 C 54.812625 29.712891 54.861203 29.709172 54.908203 29.701172 C 55.455203 29.623172 55.835813 29.117313 55.757812 28.570312 C 55.578813 27.312313 55.296875 26.060609 54.921875 24.849609 C 54.799625 24.453609 54.454016 24.188781 54.066406 24.150391 z M 10.162109 34.632812 L 8.1875 34.958984 C 7.6425 35.048984 7.2752344 35.565375 7.3652344 36.109375 C 7.4462344 36.599375 7.8696094 36.945312 8.3496094 36.945312 C 8.4036094 36.945313 8.458625 36.940641 8.515625 36.931641 L 10.488281 36.605469 C 11.032281 36.515469 11.4025 36.000078 11.3125 35.455078 C 11.2215 34.911078 10.704109 34.544812 10.162109 34.632812 z M 11.548828 38.990234 C 11.418812 38.986516 11.2855 39.008594 11.15625 39.058594 L 9.2949219 39.787109 C 8.7799219 39.988109 8.5255625 40.567031 8.7265625 41.082031 C 8.8805625 41.477031 9.2582031 41.71875 9.6582031 41.71875 C 9.7782031 41.71875 9.9014844 41.697391 10.021484 41.650391 L 11.884766 40.921875 C 12.399766 40.720875 12.652172 40.141953 12.451172 39.626953 C 12.301172 39.241453 11.938875 39.001391 11.548828 38.990234 z M 13.412109 43.042969 C 13.284297 43.066172 13.160422 43.113703 13.044922 43.189453 L 11.371094 44.285156 C 10.909094 44.587156 10.779031 45.207922 11.082031 45.669922 C 11.273031 45.962922 11.593922 46.121094 11.919922 46.121094 C 12.107922 46.121094 12.297797 46.068984 12.466797 45.958984 L 14.138672 44.863281 C 14.600672 44.561281 14.730734 43.940516 14.427734 43.478516 C 14.201234 43.132016 13.795547 42.973359 13.412109 43.042969 z M 16.443359 46.556641 C 16.187609 46.556641 15.931828 46.654109 15.736328 46.849609 L 14.322266 48.263672 C 13.931266 48.654672 13.931266 49.286734 14.322266 49.677734 C 14.517266 49.872734 14.773297 49.970703 15.029297 49.970703 C 15.285297 49.970703 15.541328 49.872734 15.736328 49.677734 L 17.150391 48.263672 C 17.541391 47.872672 17.541391 47.240609 17.150391 46.849609 C 16.954891 46.654109 16.699109 46.556641 16.443359 46.556641 z M 20.152344 49.423828 C 19.768906 49.354453 19.363219 49.515578 19.136719 49.861328 L 18.042969 51.533203 C 17.740969 51.995203 17.868078 52.615969 18.330078 52.917969 C 18.499078 53.028969 18.690906 53.082031 18.878906 53.082031 C 19.204906 53.082031 19.522844 52.922906 19.714844 52.628906 L 20.810547 50.955078 C 21.112547 50.493078 20.983484 49.874266 20.521484 49.572266 C 20.405984 49.496516 20.280156 49.446953 20.152344 49.423828 z M 23.980469 51.480469 C 23.590656 51.491484 23.228875 51.729734 23.078125 52.115234 L 22.349609 53.978516 C 22.148609 54.492516 22.402969 55.072437 22.917969 55.273438 C 23.036969 55.320437 23.16025 55.34375 23.28125 55.34375 C 23.68125 55.34375 24.058891 55.101078 24.212891 54.705078 L 24.941406 52.84375 C 25.142406 52.32975 24.888047 51.749828 24.373047 51.548828 C 24.243797 51.498578 24.110406 51.476797 23.980469 51.480469 z M 28.544922 52.689453 C 27.999922 52.597453 27.484531 52.967719 27.394531 53.511719 L 27.066406 55.484375 C 26.976406 56.029375 27.345625 56.544766 27.890625 56.634766 C 27.946625 56.644766 28.000688 56.648438 28.054688 56.648438 C 28.535688 56.648437 28.958063 56.3025 29.039062 55.8125 L 29.367188 53.839844 C 29.457188 53.294844 29.089922 52.779453 28.544922 52.689453 z" fill="#000000"/></svg></g><!--ITEM: Icon component 3--><g transform="translate(885.0 332.0) rotate(20.589098033584623 138.0 138.0)  scale(5.75 5.75)"><svg width="48.0" height="48.0" viewBox="0.0 0.0 48.0 48.0"><linearGradient id="9dJVdMjUAJ9YReWsL3O_0a-i3" x1="15.5" x2="15.5" y1="44.882" y2="5.379" gradientUnits="userSpaceOnUse"><stop offset=".023" stop-color="#692a15" fill="#000000"/><stop offset=".344" stop-color="#802d10" fill="#000000"/><stop offset="1" stop-color="#8b3817" fill="#000000"/></linearGradient><ellipse cx="15.5" cy="22.5" fill="url(#9dJVdMjUAJ9YReWsL3O_0a-i3)" rx="11.5" ry="16.5"/><path fill="#692a15" d="M15.499,36.5c-0.259,0-0.521-0.066-0.76-0.207c-0.714-0.42-0.952-1.34-0.532-2.054 c2.167-3.684,1.045-7.385-0.143-11.305c-1.261-4.161-2.69-8.879,0.143-13.695c0.421-0.713,1.34-0.952,2.054-0.532 s0.952,1.34,0.532,2.054c-2.167,3.684-1.045,7.385,0.143,11.305c1.261,4.161,2.69,8.879-0.143,13.695 C16.514,36.235,16.013,36.5,15.499,36.5z"/><radialGradient id="9dJVdMjUAJ9YReWsL3O_0b-i3" cx="30.147" cy="31.735" r="21.988" gradientTransform="matrix(1 0 0 .626 0 11.869)" gradientUnits="userSpaceOnUse"><stop offset=".841" stop-opacity=".1" fill="#000000"/><stop offset="1" stop-opacity="0" fill="#000000"/></radialGradient><ellipse cx="15.5" cy="22.5" fill="url(#9dJVdMjUAJ9YReWsL3O_0b-i3)" rx="11.5" ry="16.5"/><linearGradient id="9dJVdMjUAJ9YReWsL3O_0c-i3" x1="27.5" x2="27.5" y1="15.882" y2="60.944" gradientUnits="userSpaceOnUse"><stop offset="0" stop-color="#a34f27" fill="#000000"/><stop offset="1" stop-color="#8b3817" fill="#000000"/></linearGradient><ellipse cx="27.5" cy="32.5" fill="url(#9dJVdMjUAJ9YReWsL3O_0c-i3)" rx="16.5" ry="11.5"/><path fill="#692a15" d="M20.322,35.436c-1.986,0-4.025-0.433-6.083-1.643c-0.714-0.42-0.952-1.34-0.532-2.054 s1.34-0.951,2.054-0.532c3.686,2.166,7.386,1.045,11.305-0.143c4.162-1.262,8.88-2.688,13.695,0.143 c0.714,0.42,0.952,1.34,0.532,2.054s-1.339,0.952-2.054,0.532c-3.686-2.167-7.386-1.045-11.305,0.143 C25.551,34.658,22.984,35.436,20.322,35.436z"/></svg></g><!--ITEM: Illustration component 4--><g transform="translate(701.0 257.0) rotate(0.0 162.5 181.0)  scale(1.308579044213866 1.3105970095217407)"><svg width="248.361" height="276.21" viewBox="0.0 0.0 248.361 276.21"><path d="m170.067 17.58c0-5.587-7.279-10.116-16.258-10.116-7.66 0-14.083 3.296-15.805 7.733-.446 1.149.44 2.383 1.672 2.383z" fill="#002652"/><path d="m168.837 9.679c0-4.757-6.197-8.612-13.841-8.612-6.521 0-11.989 2.806-13.455 6.584-.38.978.374 2.029 1.423 2.029h25.873z" fill="#002652"/><path d="m81.857 152.435 19.535 49.856-13.435-3.002-3.378 15.115-39.07-60.463c-.657-1.017.092-2.355 1.302-2.326z" fill="#2888ff"/><path d="m101.392 202.292-13.437-3.003-3.376 15.115-16.874-26.114h28.2z" fill="#ccc"/><path d="m101.392 202.292-13.437-3.003-3.376 15.115-16.874-26.114h28.2z" fill="#a9cfff"/><path d="m62.365 222.705-3.825-2.486c-1.055-.686-1.691-1.858-1.691-3.116 0-1.85 1.36-3.418 3.191-3.679l8.078-1.154c5.105-.729 9.641-3.64 12.431-7.977l3.34-5.192 3.198 1.954c.771.471 1.066 1.445.685 2.265l-1.089 2.346 4.499 1.869c3.047 1.266 6.55.683 9.023-1.502l3.818-3.374c.669-.591 1.724-.148 1.771.744l.789 15.179-.914 3.573z" fill="#7eb8ff"/><path d="m107.751 219.579-.708 1.502c-1.273 2.702-3.992 4.427-6.98 4.427h-31.761c-.611 0-1.211-.157-1.743-.457l-7.032-3.957h26.153c.463 0 .908-.181 1.24-.504 1.667-1.623 3.901-2.531 6.227-2.531h13.64c.781-.001 1.297.813.964 1.52z" fill="#016eea"/><path d="m74.204 91.941-14.692-10.57 1.161.747c.112.07.228.133.352.186 1.266.55 2.739-.031 3.293-1.294l.031-.035c.341-.794.324-1.7-.049-2.481l-1.806-3.729c-.466-.936-.671-1.988-.589-3.031.078-.712.28-1.392.642-1.895.193-.269.428-.486.717-.634.039-.019.079-.037.119-.05.519-.17 1.079.113 1.249.632l5.117 11.671 1.803 2.447c1.113 1.496 1.853 3.235 2.159 5.075l.452 2.771c.011.064.025.126.041.19z" fill="#c78982"/><path d="m74.171 99.692c1.641-3.155.805-5.552.089-7.992l-.265-.488-19.613-15.05-.488-.949-.994 1.867c-.281.528-.217 1.172.161 1.635l.71.869-.395.972c-.197.485-.124 1.039.193 1.456l1.162 1.527-.292 3.029c-.103 1.053.186 2.108.819 2.959l5.178 7.945 17.306 13.73 3.532-8.324z" fill="#c78982"/><path d="m68.703 104.412 35.194 26.825 15.662.252 7.699-14.207-50.856-27.078z" fill="#013b84"/><path d="m53.299 131.73 82.181-12.025v39.532h-79.936c-6.744 0-12.21-5.467-12.21-12.21v-3.766c-.001-5.785 4.242-10.693 9.965-11.531z" fill="#2888ff"/><path d="m164.106 112.905v27.933c0 4.108-1.827 8.003-4.986 10.629l-49.512 41.158-15.043 28.021c-2.349 4.375-5.88 8.001-10.191 10.464l-32.578 29.368-15.488-13.767 45.655-56.851 2.125-15.866 62.811-64.532z" fill="#2888ff"/><path d="m148.08 21.036-.122 20.993c.062 2.482 2.526 4.184 4.869 3.363l21.734-7.614z" fill="#c78982"/><path d="m149.791 33.791-3.717-.089c-1.549-.037-2.312-1.901-1.233-3.013l4.718-4.867z" fill="#c78982"/><path d="m160.37 7.953.478-.012c2.021-.051 3.7 1.546 3.751 3.567l.319 12.707-16.944.425-.089-3.559c-.178-7.073 5.412-12.951 12.485-13.128z" fill="#c78982"/><path d="m131.833 83.285 6.934-15.256c1.114-2.451 3.091-4.406 5.554-5.492l51.009-22.504c2.617-1.155 5.582-1.24 8.262-.239l39.85 14.897c.468.175.342.868-.157.868h-50.803v31.623z" fill="#013b84"/><path d="m190.746 75.054h45.896c6.472 0 11.719-5.247 11.719-11.719v-1.764c0-4.038-3.273-7.311-7.311-7.311h-50.305v20.794z" fill="#013b84"/><path d="m103.242 124.439h41.175c6.299 0 12.394 2.234 17.2 6.306l2.273 1.925 17.726-18.664c7.542-7.941 13.594-17.174 17.867-27.258l12.834-30.288-74.419 24.226z" fill="#013b84"/><path d="m179.894 24.671h-19.795v39.181c0 .951 1.15 1.426 1.821.753l17.974-18.04z" fill="#c78982"/><path d="m105.075 150.543 18.713-18.713c1.026-1.026.299-2.779-1.151-2.779h-28.308z" fill="#002652" opacity=".1"/><path d="m148.048 22.089h10.625v13.507h-10.625z" fill="#c78982" transform="matrix(.9997 -.0251 .0251 .9997 -.6749 3.8537)"/><path d="m164.886 5.321h5.029c5.496 0 9.951 4.455 9.951 9.951v24.877h-31.986v-17.823c0-9.392 7.614-17.005 17.006-17.005z" fill="#c78982"/><path d="m139.029 117.136 16.518-35.725-19.07-8.29-16.518 35.725z" fill="#013b84"/><path d="m160.247 42.646 2.373-.977c1.047-.431 2.036.725 1.448 1.693l-3.747 6.167" fill="#002652" opacity=".1"/><path d="m148.108 24.906h2.434c.283 0 .554.112.754.312l1.013 1.013c.672.672.196 1.82-.754 1.82h-3.532" fill="#002652" opacity=".1"/><path d="m161.313 28.62v3.769c0 3.475-2.068 6.616-5.259 7.99 0-2.726-2.21-4.935-4.935-4.935h-3.239v6.87c0 2.505 2.521 4.223 4.853 3.308l9.239-3.627c1.361-.534 2.255-1.847 2.255-3.308v-12.982c-1.609 0-2.914 1.305-2.914 2.915z" fill="#002652"/><path d="m151.6 41.068-2.448.565c-.651.15-1.272-.344-1.272-1.012v-2.959h2.345c1.256 0 2.275 1.018 2.275 2.275 0 .54-.373 1.009-.9 1.131z" fill="#c78982"/><path d="m55.845 80.21 2.651-9.96c.196-1.071-.283-2.067-1.088-2.433-.005-.002-.009-.003-.014-.005-.296-.096-.615.066-.711.362l-3.04 7.43z" fill="#c78982"/><path d="m56.277 81.114 4.878-6.959c.552-.938.446-2.038-.184-2.659-.004-.003-.007-.006-.011-.009-.245-.192-.6-.149-.792.096l-5.543 6.075z" fill="#c78982"/><path d="m57.861 84.425 4.247-6.059c.552-.938.446-2.038-.184-2.659-.004-.003-.007-.006-.011-.009-.245-.192-.6-.149-.792.096l-4.847 5.312z" fill="#c78982"/><path d="m55.536 80.654h3.675v7.351h-3.675z" fill="#c78982"/><path d="m56.745 85.384h4.464v7.351h-4.464z" fill="#c78982" transform="matrix(-.8222 .5692 -.5692 -.8222 158.1597 128.7128)"/><path d="m43.111 268.484 16.663-15.103-15.393-16.708-14.341 17.71z" fill="#a9cfff"/><path d="m5.516 273.408-3.825-2.486c-1.055-.686-1.691-1.859-1.691-3.117 0-1.85 1.36-3.418 3.191-3.679l11.635-1.662c2.922-.417 5.657-1.688 7.86-3.652l11.869-10.581.887.492 2.605 2.605c.694.694.694 1.819 0 2.513l-1.778 1.777 5.732 2.498c3.128 1.363 6.736 1.025 9.556-.896l2.071-1.411c.872-.594 1.985.304 1.588 1.282l-6.397 15.765z" fill="#7eb8ff"/><path d="m50.903 270.281-.708 1.502c-1.273 2.702-3.992 4.427-6.98 4.427h-31.762c-.611 0-1.211-.157-1.743-.457l-7.032-3.957h26.153c.463 0 .908-.181 1.24-.504 1.667-1.623 3.901-2.531 6.227-2.531h13.64c.782 0 1.298.813.965 1.52z" fill="#016eea"/><path d="m177.066 37.717-7.9 3.51v-33.445c0-1.963 1.591-3.554 3.554-3.554h1.599c7.616 0 13.444 6.783 12.297 14.312l-1.268 8.326c-.731 4.793-3.852 8.882-8.282 10.851z" fill="#002652"/><path d="m166.387 24.503h-15.756l-.355-2.606h16.111z" fill="#93c3ff"/><path d="m176.463 8.714h-12.438v25.746c0 3.926 3.182 7.108 7.108 7.108h5.33z" fill="#002652"/><path d="m168.301 6.386h-14.645v8.351c0 3.926 3.182 7.108 7.108 7.108h7.537z" fill="#002652"/><path d="m150.091 22.897c.036 0 .066.03.066.066v5.162c0 .037-.03.066-.066.066h-3.445c-.036 0-.066-.03-.066-.066v-5.162c0-.036.03-.066.066-.066zm0-1h-3.445c-.589 0-1.066.477-1.066 1.066v5.162c0 .589.477 1.066 1.066 1.066h3.445c.589 0 1.066-.478 1.066-1.066v-5.162c0-.588-.477-1.066-1.066-1.066z" fill="#93c3ff"/><path d="m174.331 26.109c0-5.587 7.279-10.116 16.258-10.116 7.66 0 14.083 3.296 15.805 7.733.446 1.149-.44 2.383-1.672 2.383z" fill="#002652"/><path d="m168.289 33.217c0-5.195 6.768-9.406 15.116-9.406 7.122 0 13.093 3.065 14.694 7.19.415 1.068-.409 2.215-1.554 2.215h-28.256z" fill="#002652"/><path d="m172.209 37.482c-4.333 0-5.663-5.836-1.777-7.752 2.116-1.043 4.681-1.654 7.445-1.654 6.191 0 11.383 3.065 12.774 7.19.36 1.068-.355 2.215-1.351 2.215h-17.091z" fill="#002652"/><path d="m169.981 41.596c-3.192 0-4.172-4.299-1.309-5.711 1.559-.769 3.449-1.218 5.485-1.218 4.561 0 8.386 2.258 9.411 5.297.265.787-.262 1.632-.996 1.632z" fill="#002652"/><path d="m170.066 16.869c0-5.587 7.279-10.116 16.258-10.116 7.66 0 14.083 3.296 15.805 7.733.446 1.149-.44 2.383-1.672 2.383z" fill="#002652"/><path d="m156.206 10.116c0-5.587 7.279-10.116 16.258-10.116 7.66 0 14.083 3.296 15.805 7.733.446 1.149-.44 2.383-1.672 2.383z" fill="#002652"/><g fill="#c78982"><path d="m204.187 99.927c.972-.027 1.882-.83 2.142-1.999l2.528-18.008-4.997-3.313-.254 22.648c-.029.341.224.642.565.671.005.001.01.001.016.001z"/><path d="m207.489 94.205c.961.15 2.002-.476 2.469-1.577l5.75-17.252-4.314-4.164-4.354 22.227c-.091.33.104.672.434.762.004.001.009.002.015.004z"/><path d="m211.257 91.514c.966.113 1.982-.552 2.406-1.671l5.082-17.46-4.471-3.995-3.495 22.378c-.078.334.129.667.463.745.004.001.009.002.015.003z"/><path d="m215.071 87.216c.966.113 1.982-.552 2.406-1.671l4.738-16.281c.21-.721-.013-1.498-.573-1.998l-3.555-3.176-3.495 22.378c-.078.334.129.667.463.745.006.001.011.002.016.003z"/><path d="m216.467 75.851h-5.655c-3.29 0-5.981-2.692-5.981-5.981v-5.003c0-3.29 2.692-5.981 5.981-5.981h1.409c5.625 0 10.227 4.602 10.227 10.227v.757c.001 3.289-2.691 5.981-5.981 5.981z"/><path d="m206.474 60.931v16.049l-.064-1.222c-.008-.117-.023-.233-.049-.35-.26-1.196-1.055-1.722-2.251-1.466l-.427-.238c-.748.165-1.006.881-1.374 1.554l-1.749 3.231c-.433.82-1.083 1.512-1.877 1.993-.553.312-1.533.285-2.082.285-.293 0-.572-.056-.827-.188-.034-.019-.068-.038-.098-.06-.391-.286-.478-.835-.192-1.226l5.751-9.726.827-2.565c.5-1.576 1.369-3.009 2.535-4.182l1.76-1.76c.042-.042.08-.084.117-.129z"/><path d="m219.44 72.305c0 5.262-3.946 9.528-8.814 9.528-.27 0-.538-.013-.802-.039-.164-.016-.504.1-.489-.062.048-.508-.61-.586-.705-.144-.031.145-.285-.076-.426-.119-1.561-.481-2.945-1.416-4.023-2.664-.117-.135-.339-.237-.339-.416.007-2.973-1.045-3.887-1.611-2.989-.132.21-.083-.464-.141-.709-.182-.763-.279-1.563-.279-2.387 0-5.262 3.946-9.528 8.814-9.528 4.869 0 8.815 4.266 8.815 9.529z"/></g></svg></g><!--ITEM: Icon component 5--><g transform="translate(765.0 330.0) rotate(5.181816230558351 24.0 24.0)  scale(1.0 1.0)"><svg width="48.0" height="48.0" viewBox="0.0 0.0 48.0 48.0"><path fill="#FFC107" d="M11.143 15L13 28 35 28 36.857 15z"/><path fill="#795548" d="M39,15v-2.5c0-0.828-0.672-1.5-1.5-1.5h-27C9.672,11,9,11.672,9,12.5V15H39z"/><path fill="#77574F" d="M13.143 29L15 42 33 42 34.857 29z"/><path fill="#77574F" d="M24 23A5 5 0 1 0 24 33A5 5 0 1 0 24 23Z"/><path fill="#4E342E" d="M20 28c0-.732.211-1.409.555-2h-7.84l.714 5h7.951C20.541 30.267 20 29.201 20 28zM27.445 26C27.789 26.591 28 27.268 28 28c0 1.201-.541 2.267-1.38 3h7.951l.714-5H27.445zM36 6L12 6 11 11 37 11z"/><path fill="#5D4037" d="M24,21c3.866,0,7,3.134,7,7s-3.134,7-7,7s-7-3.134-7-7S20.134,21,24,21 M24,20c-4.411,0-8,3.589-8,8s3.589,8,8,8s8-3.589,8-8S28.411,20,24,20L24,20z"/><path fill="#FFF3E0" d="M24,21c-3.866,0-7,3.134-7,7s3.134,7,7,7s7-3.134,7-7S27.866,21,24,21z M24,32c-2.209,0-4-1.791-4-4s1.791-4,4-4s4,1.791,4,4S26.209,32,24,32z"/></svg></g></svg>